<svg width="16" height="17" viewBox="0 0 16 17" fill="none" xmlns="http://www.w3.org/2000/svg">
<g clip-path="url(#clip0_62_88)">
<path d="M14.5 3.5C14.6326 3.5 14.7598 3.55268 14.8536 3.64645C14.9473 3.74021 15 3.86739 15 4V13C15 13.1326 14.9473 13.2598 14.8536 13.3536C14.7598 13.4473 14.6326 13.5 14.5 13.5H1.5C1.36739 13.5 1.24021 13.4473 1.14645 13.3536C1.05268 13.2598 1 13.1326 1 13V4C1 3.86739 1.05268 3.74021 1.14645 3.64645C1.24021 3.55268 1.36739 3.5 1.5 3.5H14.5ZM1.5 2.5C1.10218 2.5 0.720644 2.65804 0.43934 2.93934C0.158035 3.22064 0 3.60218 0 4L0 13C0 13.3978 0.158035 13.7794 0.43934 14.0607C0.720644 14.342 1.10218 14.5 1.5 14.5H14.5C14.8978 14.5 15.2794 14.342 15.5607 14.0607C15.842 13.7794 16 13.3978 16 13V4C16 3.60218 15.842 3.22064 15.5607 2.93934C15.2794 2.65804 14.8978 2.5 14.5 2.5H1.5Z" fill="#949FA6"/>
<path d="M5 8.5C5 8.36739 5.05268 8.24021 5.14645 8.14645C5.24021 8.05268 5.36739 8 5.5 8H12.5C12.6326 8 12.7598 8.05268 12.8536 8.14645C12.9473 8.24021 13 8.36739 13 8.5C13 8.63261 12.9473 8.75979 12.8536 8.85355C12.7598 8.94732 12.6326 9 12.5 9H5.5C5.36739 9 5.24021 8.94732 5.14645 8.85355C5.05268 8.75979 5 8.63261 5 8.5ZM5 6C5 5.86739 5.05268 5.74021 5.14645 5.64645C5.24021 5.55268 5.36739 5.5 5.5 5.5H12.5C12.6326 5.5 12.7598 5.55268 12.8536 5.64645C12.9473 5.74021 13 5.86739 13 6C13 6.13261 12.9473 6.25979 12.8536 6.35355C12.7598 6.44732 12.6326 6.5 12.5 6.5H5.5C5.36739 6.5 5.24021 6.44732 5.14645 6.35355C5.05268 6.25979 5 6.13261 5 6ZM5 11C5 10.8674 5.05268 10.7402 5.14645 10.6464C5.24021 10.5527 5.36739 10.5 5.5 10.5H12.5C12.6326 10.5 12.7598 10.5527 12.8536 10.6464C12.9473 10.7402 13 10.8674 13 11C13 11.1326 12.9473 11.2598 12.8536 11.3536C12.7598 11.4473 12.6326 11.5 12.5 11.5H5.5C5.36739 11.5 5.24021 11.4473 5.14645 11.3536C5.05268 11.2598 5 11.1326 5 11ZM4 6C4 6.13261 3.94732 6.25979 3.85355 6.35355C3.75979 6.44732 3.63261 6.5 3.5 6.5C3.36739 6.5 3.24021 6.44732 3.14645 6.35355C3.05268 6.25979 3 6.13261 3 6C3 5.86739 3.05268 5.74021 3.14645 5.64645C3.24021 5.55268 3.36739 5.5 3.5 5.5C3.63261 5.5 3.75979 5.55268 3.85355 5.64645C3.94732 5.74021 4 5.86739 4 6ZM4 8.5C4 8.63261 3.94732 8.75979 3.85355 8.85355C3.75979 8.94732 3.63261 9 3.5 9C3.36739 9 3.24021 8.94732 3.14645 8.85355C3.05268 8.75979 3 8.63261 3 8.5C3 8.36739 3.05268 8.24021 3.14645 8.14645C3.24021 8.05268 3.36739 8 3.5 8C3.63261 8 3.75979 8.05268 3.85355 8.14645C3.94732 8.24021 4 8.36739 4 8.5ZM4 11C4 11.1326 3.94732 11.2598 3.85355 11.3536C3.75979 11.4473 3.63261 11.5 3.5 11.5C3.36739 11.5 3.24021 11.4473 3.14645 11.3536C3.05268 11.2598 3 11.1326 3 11C3 10.8674 3.05268 10.7402 3.14645 10.6464C3.24021 10.5527 3.36739 10.5 3.5 10.5C3.63261 10.5 3.75979 10.5527 3.85355 10.6464C3.94732 10.7402 4 10.8674 4 11Z" fill="#949FA6"/>
</g>
<defs>
<clipPath id="clip0_62_88">
<rect width="16" height="16" fill="white" transform="translate(0 0.5)"/>
</clipPath>
</defs>
</svg>
